<svg xmlns="http://www.w3.org/2000/svg" viewBox="0 0 274 524"><defs><linearGradient id="cvSky" x1="0" y1="0" x2="0" y2="1"><stop offset="0" stop-color="#3f86d4"/><stop offset="1" stop-color="#d6e8f5"/></linearGradient><linearGradient id="cvGrass" x1="0" y1="60.6" x2="0" y2="524" gradientUnits="userSpaceOnUse"><stop offset="0" stop-color="#9fb58f"/><stop offset=".25" stop-color="#6f9356"/><stop offset="1" stop-color="#4b7438"/></linearGradient><linearGradient id="cvHaze" x1="0" y1="60.6" x2="0" y2="100.6" gradientUnits="userSpaceOnUse"><stop offset="0" stop-color="#d6e8f5" stop-opacity=".9"/><stop offset="1" stop-color="#d6e8f5" stop-opacity="0"/></linearGradient><style>.sh{fill:#0f230f;fill-opacity:.3}.tr{stroke:#5b4630}.c1{fill:#2e5b29}.c2{fill:#386a2f}.hl{fill:#82b45f;fill-opacity:.5}</style></defs><rect width="274" height="61.6" fill="url(#cvSky)"/><rect y="60.6" width="274" height="463.4" fill="url(#cvGrass)"/><polygon points="-1189.8,680.8 1463.8,680.8 1308.9,608.4 -1034.9,608.4" fill="#b9b2a4"/><polygon points="-13703.8,9735.2 62.7,112.5 59.3,112.5 -14350.6,9735.2" fill="#b9b2a4"/><polygon points="-51.8,148.9 325.8,148.9 320.9,146.6 -46.9,146.6" fill="#b9b2a4"/><polygon points="-492.4,513.2 -262.4,513.2 -51.5,274.2 -160,274.2" fill="#9b958a"/><polygon points="-133.8,263.1 -36.3,263.1 -0.6,221.5 -78.1,221.5" fill="#d3cdc0"/><polygon points="-60.9,221.5 -22.2,221.5 -10.1,209.2 -45.8,209.2" fill="#c6c0b3"/><polygon points="370.7,362 564.2,362 371.4,226 265.3,226" fill="#7fae5e"/><polygon points="374.6,347.3 528,347.3 369.1,230.8 278.1,230.8" fill="#8bbb69"/><polygon points="449.4,347.3 453.2,347.3 324.7,230.8 322.5,230.8" fill="#e8f0dd"/><polygon points="-121.7,189.6 -66.5,189.6 -7.1,152 -46.2,152" fill="#5c8745"/><polygon points="354.1,205.6 466.5,205.6 353,155.7 279.3,155.7" fill="#668e4d"/><polygon points="191.7,211.1 189.6,207.2 186.2,203.7 181.8,200.8 176.9,198.7 171.6,197.4 166.2,197 161,197.4 156.2,198.7 152.1,200.8 149.1,203.7 147.2,207.2 146.7,211.1 147.7,215.3 150.4,219.4 154.6,223.1 160,226 166.3,228 172.9,228.6 179.3,228 184.8,226 189,223.1 191.6,219.4 192.5,215.3" fill="#c9b98f"/><polygon points="189.3,211.1 187.4,207.5 184.4,204.2 180.5,201.6 176,199.6 171.2,198.3 166.4,197.9 161.7,198.3 157.4,199.6 153.8,201.6 151.1,204.2 149.5,207.5 149.1,211.1 150.1,215 152.5,218.8 156.3,222.1 161.2,224.8 166.8,226.6 172.6,227.2 178.2,226.6 183.1,224.8 186.8,222.1 189.1,218.8 190,215" fill="#3f7fa3"/><rect y="60.6" width="274" height="40" fill="url(#cvHaze)"/><g fill="none" stroke-linecap="round" stroke-linejoin="round"><polyline points="137,155.3 137,157 137,158.8" stroke="#263f2c" stroke-width="4.5"/><polyline points="137,158.8 137,160.6 137,162.6 137,164.6 137,166.6 137,168.8 141,168.4 144.9,167.9 148.8,167.2 152.6,166.6 156.4,166.1 160.2,165.7 164,165.4" stroke="#263f2c" stroke-width="5"/><polyline points="164,165.4 167.8,165.4 171.9,165.7 176.3,166.1 180.9,166.6 185.5,167.3 190.1,168.2 194.5,169.1 198.6,170.2" stroke="#263f2c" stroke-width="5"/><polyline points="198.6,170.2 202.1,171.4 205.4,172.7 208.5,174.3 211.5,176.1 214.2,178.1 216.6,180.2" stroke="#263f2c" stroke-width="5.5"/><polyline points="216.6,180.2 218.6,182.3 220,184.3 220.9,186.2 220.7,187.9 219.2,189.4 216.9,190.9" stroke="#263f2c" stroke-width="6"/><polyline points="216.9,190.9 214,192.3 211.2,193.7 208.8,195.2 207.3,196.9 207.2,198.7 208.8,200.8" stroke="#263f2c" stroke-width="6.5"/><polyline points="208.8,200.8 211.9,203 216,205.3 220.9,207.8 226,210.4" stroke="#263f2c" stroke-width="7"/><polyline points="226,210.4 231.1,213.2 235.5,216.2 238.8,219.3 241.2,222.7" stroke="#263f2c" stroke-width="7.5"/><polyline points="241.2,222.7 243.2,226.5 244.8,230.6" stroke="#263f2c" stroke-width="8"/><polyline points="244.8,230.6 246,234.9 246.6,239.4 246.7,244.1" stroke="#263f2c" stroke-width="8.5"/><polyline points="246.7,244.1 246.2,248.7 245.1,253.2" stroke="#263f2c" stroke-width="9"/><polyline points="245.1,253.2 243.3,257.7 240.6,262.5" stroke="#263f2c" stroke-width="9.5"/><polyline points="240.6,262.5 237.1,267.4 232.9,272.3" stroke="#263f2c" stroke-width="10"/><polyline points="232.9,272.3 227.9,276.9 222.2,281 216,284.3" stroke="#263f2c" stroke-width="10.5"/><polyline points="216,284.3 209.5,286.5 202.4,287.1 194.5,285.9 186.4,283.6" stroke="#263f2c" stroke-width="11"/><polyline points="186.4,283.6 178.2,280.7 170.2,277.8 162.6,275.5 155.3,274.1 148.4,274.2 141.8,276 135.4,279.3 128.9,283.7" stroke="#263f2c" stroke-width="10.5"/><polyline points="128.9,283.7 122.1,288.7 115,294" stroke="#263f2c" stroke-width="11"/><polyline points="115,294 107.5,299 99.5,303 91.2,305.4" stroke="#263f2c" stroke-width="11.5"/><polyline points="91.2,305.4 82.3,306.2 73,306.2 63.4,305.4" stroke="#263f2c" stroke-width="12"/><polyline points="63.4,305.4 54.1,303.8 45.4,301.5 37.6,298.5 31.1,295" stroke="#263f2c" stroke-width="11.5"/><polyline points="31.1,295 26.1,291 22.5,286.2" stroke="#263f2c" stroke-width="11"/><polyline points="22.5,286.2 19.7,280.6 18,274.6" stroke="#263f2c" stroke-width="10.5"/><polyline points="18,274.6 17.1,268.5 17.2,262.5" stroke="#263f2c" stroke-width="10"/><polyline points="17.2,262.5 18.1,256.8 19.8,251.6" stroke="#263f2c" stroke-width="9.5"/><polyline points="19.8,251.6 22.3,247 26.4,242.9" stroke="#263f2c" stroke-width="9"/><polyline points="26.4,242.9 32.3,239 39.1,235.4 46.3,231.9" stroke="#263f2c" stroke-width="8.5"/><polyline points="46.3,231.9 53,228.6 58.7,225.4 62.8,222.3" stroke="#263f2c" stroke-width="8"/><polyline points="62.8,222.3 64.9,219.3 64.5,216.4 62.2,213.7 58.7,211.2" stroke="#263f2c" stroke-width="7.5"/><polyline points="58.7,211.2 54.6,208.7 50.6,206.2 47.3,203.7 45.1,201.3" stroke="#263f2c" stroke-width="7"/><polyline points="45.1,201.3 44.7,198.7 45.7,196.1 47.5,193.4 50,190.6" stroke="#263f2c" stroke-width="6.5"/><polyline points="50,190.6 52.9,188 56.3,185.4 59.8,183.1 63.5,181 67.2,179.2" stroke="#263f2c" stroke-width="6"/><polyline points="67.2,179.2 71.3,177.6 75.8,176.2 80.6,174.9 85.6,173.7 90.6,172.7 95.6,171.8 100.3,171 104.7,170.3 108.9,169.8" stroke="#263f2c" stroke-width="5.5"/><polyline points="108.9,169.8 113,169.5 117,169.4 121,169.3 125,169.2 129,169.2 133,169 137,168.8 141,168.4 144.9,167.9 148.8,167.2 152.6,166.6 156.4,166.1" stroke="#263f2c" stroke-width="5"/><polyline points="156.4,166.1 160.2,165.7 164,165.4 167.8,165.4 171.9,165.7 176.3,166.1 180.9,166.6 185.5,167.3 190.1,168.2 194.5,169.1 198.6,170.2" stroke="#263f2c" stroke-width="5"/><polyline points="198.6,170.2 202.1,171.4 205.4,172.7 208.5,174.3 211.5,176.1 214.2,178.1 216.6,180.2" stroke="#263f2c" stroke-width="5.5"/><polyline points="216.6,180.2 218.6,182.3 220,184.3 220.9,186.2 220.7,187.9 219.2,189.4 216.9,190.9" stroke="#263f2c" stroke-width="6"/><polyline points="216.9,190.9 214,192.3 211.2,193.7 208.8,195.2 207.3,196.9 207.2,198.7 208.8,200.8" stroke="#263f2c" stroke-width="6.5"/><polyline points="208.8,200.8 211.9,203 216,205.3 220.9,207.8 226,210.4" stroke="#263f2c" stroke-width="7"/><polyline points="226,210.4 231.1,213.2 235.5,216.2 238.8,219.3 241.2,222.7" stroke="#263f2c" stroke-width="7.5"/><polyline points="241.2,222.7 243.2,226.5 244.8,230.6" stroke="#263f2c" stroke-width="8"/><polyline points="244.8,230.6 246,234.9 246.6,239.4 246.7,244.1" stroke="#263f2c" stroke-width="8.5"/><polyline points="246.7,244.1 246.2,248.7 245.1,253.2" stroke="#263f2c" stroke-width="9"/><polyline points="245.1,253.2 243.3,257.7 240.6,262.5" stroke="#263f2c" stroke-width="9.5"/><polyline points="240.6,262.5 237.1,267.4 232.9,272.3" stroke="#263f2c" stroke-width="10"/><polyline points="232.9,272.3 227.9,276.9 222.2,281 216,284.3" stroke="#263f2c" stroke-width="10.5"/><polyline points="216,284.3 209.5,286.5 202.4,287.1 194.5,285.9 186.4,283.6" stroke="#263f2c" stroke-width="11"/><polyline points="186.4,283.6 178.2,280.7 170.2,277.8 162.6,275.5 155.3,274.1 148.4,274.2 141.8,276 135.4,279.3 128.9,283.7" stroke="#263f2c" stroke-width="10.5"/><polyline points="128.9,283.7 122.1,288.7 115,294" stroke="#263f2c" stroke-width="11"/><polyline points="115,294 107.5,299 99.5,303 91.2,305.4" stroke="#263f2c" stroke-width="11.5"/><polyline points="91.2,305.4 82.3,306.2 73,306.2 63.4,305.4" stroke="#263f2c" stroke-width="12"/><polyline points="63.4,305.4 54.1,303.8 45.4,301.5 37.6,298.5 31.1,295" stroke="#263f2c" stroke-width="11.5"/><polyline points="31.1,295 26.1,291 22.5,286.2" stroke="#263f2c" stroke-width="11"/><polyline points="22.5,286.2 19.7,280.6 18,274.6" stroke="#263f2c" stroke-width="10.5"/><polyline points="18,274.6 17.1,268.5 17.2,262.5" stroke="#263f2c" stroke-width="10"/><polyline points="17.2,262.5 18.1,256.8 19.8,251.6" stroke="#263f2c" stroke-width="9.5"/><polyline points="19.8,251.6 22.3,247 26.4,242.9" stroke="#263f2c" stroke-width="9"/><polyline points="26.4,242.9 32.3,239 39.1,235.4 46.3,231.9" stroke="#263f2c" stroke-width="8.5"/><polyline points="46.3,231.9 53,228.6 58.7,225.4 62.8,222.3" stroke="#263f2c" stroke-width="8"/><polyline points="62.8,222.3 64.9,219.3 64.5,216.4 62.2,213.7 58.7,211.2" stroke="#263f2c" stroke-width="7.5"/><polyline points="58.7,211.2 54.6,208.7 50.6,206.2 47.3,203.7 45.1,201.3" stroke="#263f2c" stroke-width="7"/><polyline points="45.1,201.3 44.7,198.7 45.7,196.1 47.5,193.4 50,190.6" stroke="#263f2c" stroke-width="6.5"/><polyline points="50,190.6 52.9,188 56.3,185.4 59.8,183.1 63.5,181 67.2,179.2" stroke="#263f2c" stroke-width="6"/><polyline points="67.2,179.2 71.3,177.6 75.8,176.2 80.6,174.9 85.6,173.7 90.6,172.7 95.6,171.8 100.3,171 104.7,170.3 108.9,169.8" stroke="#263f2c" stroke-width="5.5"/><polyline points="108.9,169.8 113,169.5 117,169.4 121,169.3 125,169.2 129,169.2 133,169 137,168.8 141,168.4 144.9,167.9 148.8,167.2 152.6,166.6 156.4,166.1" stroke="#263f2c" stroke-width="5"/><polyline points="156.4,166.1 160.2,165.7 164,165.4 167.8,165.4 171.9,165.7 176.3,166.1 180.9,166.6 185.5,167.3 190.1,168.2 194.5,169.1 198.6,170.2" stroke="#263f2c" stroke-width="5"/><polyline points="198.6,170.2 202.1,171.4 205.4,172.7 208.5,174.3 211.5,176.1 214.2,178.1 216.6,180.2" stroke="#263f2c" stroke-width="5.5"/><polyline points="216.6,180.2 218.6,182.3 220,184.3 220.9,186.2 220.7,187.9 219.2,189.4 216.9,190.9" stroke="#263f2c" stroke-width="6"/><polyline points="216.9,190.9 214,192.3 211.2,193.7 208.8,195.2 207.3,196.9 207.2,198.7 208.8,200.8" stroke="#263f2c" stroke-width="6.5"/><polyline points="208.8,200.8 211.9,203 216,205.3 220.9,207.8 226,210.4" stroke="#263f2c" stroke-width="7"/><polyline points="226,210.4 231.1,213.2 235.5,216.2 238.8,219.3 241.2,222.7" stroke="#263f2c" stroke-width="7.5"/><polyline points="241.2,222.7 243.2,226.5 244.8,230.6" stroke="#263f2c" stroke-width="8"/><polyline points="244.8,230.6 246,234.9 246.6,239.4 246.7,244.1" stroke="#263f2c" stroke-width="8.5"/><polyline points="246.7,244.1 246.2,248.7 245.1,253.2" stroke="#263f2c" stroke-width="9"/><polyline points="245.1,253.2 243.3,257.7 240.6,262.5" stroke="#263f2c" stroke-width="9.5"/><polyline points="240.6,262.5 237.1,267.4 232.9,272.3" stroke="#263f2c" stroke-width="10"/><polyline points="232.9,272.3 227.9,276.9 222.2,281 216,284.3" stroke="#263f2c" stroke-width="10.5"/><polyline points="216,284.3 209.5,286.5 202.4,287.1 194.5,285.9 186.4,283.6" stroke="#263f2c" stroke-width="11"/><polyline points="186.4,283.6 178.2,280.7 170.2,277.8 162.6,275.5 155.3,274.1 148.4,274.2 148.9,283.3" stroke="#263f2c" stroke-width="10.5"/><polyline points="148.9,283.3 149.4,293.3" stroke="#263f2c" stroke-width="11"/><polyline points="149.4,293.3 150,304.1" stroke="#263f2c" stroke-width="11.5"/><polyline points="150,304.1 150.7,316.1" stroke="#263f2c" stroke-width="12"/><polyline points="150.7,316.1 150.4,327.7" stroke="#263f2c" stroke-width="12.5"/><polyline points="150.4,327.7 150.1,340.4" stroke="#263f2c" stroke-width="13"/><polyline points="150.1,340.4 149.8,354.5" stroke="#263f2c" stroke-width="14"/><polyline points="149.8,354.5 149.4,370" stroke="#263f2c" stroke-width="14.5"/><polyline points="137,155.3 137,157 137,158.8 137,160.6 137,162.6 137,164.6 137,166.6 137,168.8" stroke="#38bdf8" stroke-width="3.5"/><polyline points="137,168.8 141,168.4" stroke="#38bdf8" stroke-width="4"/><polyline points="141,168.4 144.9,167.9 148.8,167.2 152.6,166.6 156.4,166.1 160.2,165.7 164,165.4 167.8,165.4 171.9,165.7 176.3,166.1 180.9,166.6 185.5,167.3 190.1,168.2" stroke="#38bdf8" stroke-width="3.5"/><polyline points="190.1,168.2 194.5,169.1 198.6,170.2 202.1,171.4 205.4,172.7 208.5,174.3 211.5,176.1 214.2,178.1 216.6,180.2 218.6,182.3" stroke="#38bdf8" stroke-width="4"/><polyline points="218.6,182.3 220,184.3 220.9,186.2 220.7,187.9 219.2,189.4 216.9,190.9 214,192.3 211.2,193.7 208.8,195.2 207.3,196.9" stroke="#38bdf8" stroke-width="4.5"/><polyline points="207.3,196.9 207.2,198.7 208.8,200.8 211.9,203 216,205.3 220.9,207.8 226,210.4" stroke="#38bdf8" stroke-width="5"/><polyline points="226,210.4 231.1,213.2 235.5,216.2 238.8,219.3 241.2,222.7 243.2,226.5" stroke="#38bdf8" stroke-width="5.5"/><polyline points="243.2,226.5 244.8,230.6 246,234.9 246.6,239.4" stroke="#38bdf8" stroke-width="6"/><polyline points="246.6,239.4 246.7,244.1 246.2,248.7 245.1,253.2" stroke="#38bdf8" stroke-width="6.5"/><polyline points="245.1,253.2 243.3,257.7 240.6,262.5 237.1,267.4" stroke="#38bdf8" stroke-width="7"/><polyline points="237.1,267.4 232.9,272.3 227.9,276.9 222.2,281 216,284.3" stroke="#38bdf8" stroke-width="7.5"/><polyline points="216,284.3 209.5,286.5 202.4,287.1 194.5,285.9 186.4,283.6" stroke="#38bdf8" stroke-width="8"/><polyline points="186.4,283.6 178.2,280.7 170.2,277.8 162.6,275.5 155.3,274.1 148.4,274.2 141.8,276 135.4,279.3 128.9,283.7" stroke="#38bdf8" stroke-width="7.5"/><polyline points="128.9,283.7 122.1,288.7 115,294 107.5,299" stroke="#38bdf8" stroke-width="8"/><polyline points="107.5,299 99.5,303 91.2,305.4 82.3,306.2 73,306.2 63.4,305.4 54.1,303.8 45.4,301.5 37.6,298.5" stroke="#38bdf8" stroke-width="8.5"/><polyline points="37.6,298.5 31.1,295 26.1,291 22.5,286.2" stroke="#38bdf8" stroke-width="8"/><polyline points="22.5,286.2 19.7,280.6 18,274.6 17.1,268.5" stroke="#38bdf8" stroke-width="7.5"/><polyline points="17.1,268.5 17.2,262.5 18.1,256.8" stroke="#38bdf8" stroke-width="7"/><polyline points="18.1,256.8 19.8,251.6 22.3,247 26.4,242.9 32.3,239" stroke="#38bdf8" stroke-width="6.5"/><polyline points="32.3,239 39.1,235.4 46.3,231.9 53,228.6 58.7,225.4" stroke="#38bdf8" stroke-width="6"/><polyline points="58.7,225.4 62.8,222.3 64.9,219.3 64.5,216.4 62.2,213.7 58.7,211.2" stroke="#38bdf8" stroke-width="5.5"/><polyline points="58.7,211.2 54.6,208.7 50.6,206.2 47.3,203.7 45.1,201.3 44.7,198.7 45.7,196.1" stroke="#38bdf8" stroke-width="5"/><polyline points="45.7,196.1 47.5,193.4 50,190.6 52.9,188 56.3,185.4 59.8,183.1" stroke="#38bdf8" stroke-width="4.5"/><polyline points="59.8,183.1 63.5,181 67.2,179.2 71.3,177.6 75.8,176.2 80.6,174.9 85.6,173.7 90.6,172.7 95.6,171.8 100.3,171 104.7,170.3 108.9,169.8 113,169.5" stroke="#38bdf8" stroke-width="4"/><polyline points="113,169.5 117,169.4 121,169.3 125,169.2 129,169.2 133,169 137,168.8" stroke="#38bdf8" stroke-width="4"/><polyline points="148.4,274.2 148.9,283.3" stroke="#a855f7" stroke-width="7.5"/><polyline points="148.9,283.3 149.4,293.3" stroke="#a855f7" stroke-width="8"/><polyline points="149.4,293.3 150,304.1 150.7,316.1" stroke="#a855f7" stroke-width="8.5"/><polyline points="150.7,316.1 150.4,327.7" stroke="#a855f7" stroke-width="9"/><polyline points="150.4,327.7 150.1,340.4" stroke="#a855f7" stroke-width="9.5"/><polyline points="150.1,340.4 149.8,354.5" stroke="#a855f7" stroke-width="10"/><polyline points="149.8,354.5 149.4,370" stroke="#a855f7" stroke-width="10.5"/><polyline points="137,168.8 141,168.4 144.9,167.9 148.8,167.2 152.6,166.6 156.4,166.1 160.2,165.7 164,165.4 167.8,165.4 171.9,165.7 176.3,166.1 180.9,166.6 185.5,167.3" stroke="#ff6a00" stroke-width="2"/><polyline points="185.5,167.3 190.1,168.2 194.5,169.1 198.6,170.2 202.1,171.4 205.4,172.7 208.5,174.3 211.5,176.1 214.2,178.1 216.6,180.2 218.6,182.3 220,184.3 220.9,186.2" stroke="#ff6a00" stroke-width="2"/><polyline points="220.9,186.2 220.7,187.9 219.2,189.4" stroke="#ff6a00" stroke-width="2"/><polyline points="219.2,189.4 216.9,190.9 214,192.3 211.2,193.7 208.8,195.2 207.3,196.9 207.2,198.7 208.8,200.8 211.9,203 216,205.3 220.9,207.8 226,210.4 231.1,213.2" stroke="#ff6a00" stroke-width="2.5"/><polyline points="231.1,213.2 235.5,216.2 238.8,219.3" stroke="#ff6a00" stroke-width="2.5"/><polyline points="238.8,219.3 241.2,222.7 243.2,226.5 244.8,230.6 246,234.9 246.6,239.4 246.7,244.1 246.2,248.7" stroke="#ff6a00" stroke-width="3"/><polyline points="246.2,248.7 245.1,253.2 243.3,257.7 240.6,262.5 237.1,267.4 232.9,272.3 227.9,276.9" stroke="#ff6a00" stroke-width="3.5"/><polyline points="227.9,276.9 222.2,281 216,284.3 209.5,286.5 202.4,287.1 194.5,285.9 186.4,283.6 178.2,280.7 170.2,277.8 162.6,275.5" stroke="#ff6a00" stroke-width="4"/><polyline points="162.6,275.5 155.3,274.1 148.4,274.2 141.8,276" stroke="#ff6a00" stroke-width="3.5"/><polyline points="141.8,276 135.4,279.3 128.9,283.7 122.1,288.7 115,294 107.5,299 99.5,303 91.2,305.4" stroke="#ff6a00" stroke-width="4"/><polyline points="91.2,305.4 82.3,306.2 73,306.2 63.4,305.4" stroke="#ff6a00" stroke-width="4.5"/><polyline points="63.4,305.4 54.1,303.8 45.4,301.5 37.6,298.5 31.1,295 26.1,291 22.5,286.2 19.7,280.6 18,274.6" stroke="#ff6a00" stroke-width="4"/><polyline points="18,274.6 17.1,268.5 17.2,262.5 18.1,256.8 19.8,251.6 22.3,247" stroke="#ff6a00" stroke-width="3.5"/><polyline points="22.3,247 26.4,242.9 32.3,239 39.1,235.4 46.3,231.9 53,228.6 58.7,225.4 62.8,222.3 64.9,219.3" stroke="#ff6a00" stroke-width="3"/><polyline points="64.9,219.3 64.5,216.4 62.2,213.7 58.7,211.2 54.6,208.7 50.6,206.2 47.3,203.7 45.1,201.3 44.7,198.7 45.7,196.1 47.5,193.4 50,190.6" stroke="#ff6a00" stroke-width="2.5"/><polyline points="50,190.6 52.9,188 56.3,185.4 59.8,183.1 63.5,181 67.2,179.2 71.3,177.6 75.8,176.2 80.6,174.9 85.6,173.7 90.6,172.7 95.6,171.8 100.3,171" stroke="#ff6a00" stroke-width="2"/><polyline points="100.3,171 104.7,170.3 108.9,169.8 113,169.5 117,169.4 121,169.3 125,169.2 129,169.2 133,169 137,168.8" stroke="#ff6a00" stroke-width="2"/><polyline points="137,168.8 141,168.4 144.9,167.9 148.8,167.2 152.6,166.6 156.4,166.1 160.2,165.7 164,165.4 167.8,165.4 171.9,165.7 176.3,166.1 180.9,166.6 185.5,167.3" stroke="#a855f7" stroke-width="1"/><polyline points="185.5,167.3 190.1,168.2 194.5,169.1 198.6,170.2 202.1,171.4 205.4,172.7 208.5,174.3 211.5,176.1 214.2,178.1 216.6,180.2 218.6,182.3 220,184.3 220.9,186.2" stroke="#a855f7" stroke-width="1"/><polyline points="220.9,186.2 220.7,187.9 219.2,189.4 216.9,190.9 214,192.3 211.2,193.7 208.8,195.2 207.3,196.9 207.2,198.7 208.8,200.8 211.9,203 216,205.3" stroke="#a855f7" stroke-width="1"/><polyline points="216,205.3 220.9,207.8 226,210.4 231.1,213.2 235.5,216.2 238.8,219.3 241.2,222.7 243.2,226.5 244.8,230.6 246,234.9 246.6,239.4 246.7,244.1 246.2,248.7" stroke="#a855f7" stroke-width="1.5"/><polyline points="246.2,248.7 245.1,253.2 243.3,257.7 240.6,262.5" stroke="#a855f7" stroke-width="1.5"/><polyline points="240.6,262.5 237.1,267.4 232.9,272.3 227.9,276.9 222.2,281 216,284.3 209.5,286.5 202.4,287.1 194.5,285.9 186.4,283.6 178.2,280.7 170.2,277.8 162.6,275.5" stroke="#a855f7" stroke-width="2"/><polyline points="162.6,275.5 155.3,274.1 148.4,274.2" stroke="#a855f7" stroke-width="2"/></g><ellipse cx="176.5" cy="136.6" rx="3.7" ry="1.5" class="sh"/><path d="M175.1 136.6V134.5" class="tr" stroke-width="1"/><circle cx="175.1" cy="132.5" r="3.5" class="c1"/><circle cx="174.1" cy="131.5" r="1.8" class="hl"/><ellipse cx="208.8" cy="136.9" rx="4.2" ry="1.7" class="sh"/><path d="M207.2 136.9V134.4" class="tr" stroke-width="1"/><circle cx="207.2" cy="132.2" r="4" class="c2"/><circle cx="206" cy="131" r="2" class="hl"/><ellipse cx="196.1" cy="139.4" rx="4.1" ry="1.6" class="sh"/><path d="M194.6 139.4V137" class="tr" stroke-width="1"/><circle cx="194.6" cy="134.8" r="3.9" class="c2"/><circle cx="193.4" cy="133.7" r="1.9" class="hl"/><ellipse cx="202.3" cy="143.3" rx="4.4" ry="1.8" class="sh"/><path d="M200.6 143.3V140.7" class="tr" stroke-width="1"/><circle cx="200.6" cy="138.4" r="4.2" class="c2"/><circle cx="199.4" cy="137.1" r="2.1" class="hl"/><ellipse cx="210.7" cy="143.3" rx="3.4" ry="1.4" class="sh"/><path d="M209.4 143.3V141.3" class="tr" stroke-width="1"/><circle cx="209.4" cy="139.5" r="3.2" class="c2"/><circle cx="208.5" cy="138.5" r="1.6" class="hl"/><ellipse cx="223.5" cy="144.5" rx="3.1" ry="1.2" class="sh"/><path d="M222.3 144.5V142.7" class="tr" stroke-width="1"/><circle cx="222.3" cy="141.1" r="2.9" class="c2"/><circle cx="221.5" cy="140.2" r="1.5" class="hl"/><ellipse cx="246.4" cy="146" rx="4.2" ry="1.7" class="sh"/><path d="M244.8 146V143.5" class="tr" stroke-width="1"/><circle cx="244.8" cy="141.4" r="4" class="c1"/><circle cx="243.6" cy="140.2" r="2" class="hl"/><ellipse cx="161.3" cy="147.4" rx="3.9" ry="1.6" class="sh"/><path d="M159.8 147.4V145.1" class="tr" stroke-width="1"/><circle cx="159.8" cy="143" r="3.7" class="c1"/><circle cx="158.7" cy="141.9" r="1.9" class="hl"/><ellipse cx="259.6" cy="147.4" rx="4.5" ry="1.8" class="sh"/><path d="M257.9 147.4V144.8" class="tr" stroke-width="1"/><circle cx="257.9" cy="142.4" r="4.3" class="c1"/><circle cx="256.6" cy="141.1" r="2.1" class="hl"/><ellipse cx="126.8" cy="147.7" rx="4.1" ry="1.6" class="sh"/><path d="M125.2 147.7V145.3" class="tr" stroke-width="1"/><circle cx="125.2" cy="143.1" r="3.9" class="c1"/><circle cx="124.1" cy="142" r="1.9" class="hl"/><ellipse cx="178.5" cy="148" rx="2.9" ry="1.2" class="sh"/><path d="M177.4 148V146.3" class="tr" stroke-width="1"/><circle cx="177.4" cy="144.8" r="2.7" class="c2"/><circle cx="176.6" cy="144" r="1.4" class="hl"/><ellipse cx="129.2" cy="148.7" rx="3.5" ry="1.4" class="sh"/><path d="M127.9 148.7V146.6" class="tr" stroke-width="1"/><circle cx="127.9" cy="144.7" r="3.3" class="c2"/><circle cx="126.9" cy="143.7" r="1.7" class="hl"/><ellipse cx="126.9" cy="149.1" rx="3.8" ry="1.5" class="sh"/><path d="M125.5 149.1V146.9" class="tr" stroke-width="1"/><circle cx="125.5" cy="144.9" r="3.6" class="c1"/><circle cx="124.4" cy="143.8" r="1.8" class="hl"/><ellipse cx="178.8" cy="149.8" rx="4.5" ry="1.8" class="sh"/><path d="M177.1 149.8V147.1" class="tr" stroke-width="1"/><circle cx="177.1" cy="144.7" r="4.3" class="c2"/><circle cx="175.8" cy="143.4" r="2.2" class="hl"/><ellipse cx="194.8" cy="150.3" rx="3.7" ry="1.5" class="sh"/><path d="M193.4 150.3V148.1" class="tr" stroke-width="1"/><circle cx="193.4" cy="146.2" r="3.6" class="c1"/><circle cx="192.3" cy="145.1" r="1.8" class="hl"/><ellipse cx="150" cy="150.8" rx="3.1" ry="1.2" class="sh"/><path d="M148.8 150.8V149" class="tr" stroke-width="1"/><circle cx="148.8" cy="147.3" r="3" class="c1"/><circle cx="147.9" cy="146.4" r="1.5" class="hl"/><ellipse cx="107.9" cy="151.3" rx="4.4" ry="1.7" class="sh"/><path d="M106.2 151.3V148.8" class="tr" stroke-width="1"/><circle cx="106.2" cy="146.5" r="4.2" class="c2"/><circle cx="104.9" cy="145.2" r="2.1" class="hl"/><ellipse cx="196.2" cy="151.9" rx="4.4" ry="1.8" class="sh"/><path d="M194.6 151.9V149.3" class="tr" stroke-width="1"/><circle cx="194.6" cy="147" r="4.2" class="c1"/><circle cx="193.3" cy="145.8" r="2.1" class="hl"/><ellipse cx="127.5" cy="152.1" rx="3" ry="1.2" class="sh"/><path d="M126.4 152.1V150.3" class="tr" stroke-width="1"/><circle cx="126.4" cy="148.7" r="2.9" class="c2"/><circle cx="125.5" cy="147.8" r="1.4" class="hl"/><ellipse cx="167.6" cy="152.3" rx="2.8" ry="1.1" class="sh"/><path d="M166.6 152.3V150.6" class="tr" stroke-width="1"/><circle cx="166.6" cy="149.1" r="2.7" class="c2"/><circle cx="165.7" cy="148.3" r="1.4" class="hl"/><ellipse cx="223.7" cy="152.9" rx="4.6" ry="1.8" class="sh"/><path d="M222 152.9V150.2" class="tr" stroke-width="1"/><circle cx="222" cy="147.8" r="4.4" class="c2"/><circle cx="220.7" cy="146.5" r="2.2" class="hl"/><ellipse cx="147.8" cy="153.2" rx="4.4" ry="1.8" class="sh"/><path d="M146.1 153.2V150.6" class="tr" stroke-width="1"/><circle cx="146.1" cy="148.3" r="4.2" class="c2"/><circle cx="144.9" cy="147.1" r="2.1" class="hl"/><ellipse cx="107.5" cy="153.4" rx="4.9" ry="2" class="sh"/><path d="M105.6 153.4V150.5" class="tr" stroke-width="1"/><circle cx="105.6" cy="148" r="4.7" class="c1"/><circle cx="104.2" cy="146.6" r="2.3" class="hl"/><ellipse cx="145.5" cy="153.5" rx="4.2" ry="1.7" class="sh"/><path d="M143.9 153.5V151" class="tr" stroke-width="1"/><circle cx="143.9" cy="148.8" r="4" class="c1"/><circle cx="142.7" cy="147.6" r="2" class="hl"/><ellipse cx="213.2" cy="153.7" rx="4.5" ry="1.8" class="sh"/><path d="M211.5 153.7V151" class="tr" stroke-width="1"/><circle cx="211.5" cy="148.7" r="4.3" class="c2"/><circle cx="210.2" cy="147.4" r="2.1" class="hl"/><ellipse cx="240.8" cy="154.3" rx="4.9" ry="2" class="sh"/><path d="M238.9 154.3V151.4" class="tr" stroke-width="1"/><circle cx="238.9" cy="148.8" r="4.7" class="c1"/><circle cx="237.5" cy="147.4" r="2.3" class="hl"/><ellipse cx="243.6" cy="156.1" rx="3" ry="1.2" class="sh"/><path d="M242.4 156.1V154.3" class="tr" stroke-width="1"/><circle cx="242.4" cy="152.7" r="2.9" class="c1"/><circle cx="241.6" cy="151.8" r="1.4" class="hl"/><ellipse cx="176.1" cy="156.8" rx="5" ry="2" class="sh"/><path d="M174.2 156.8V153.9" class="tr" stroke-width="1"/><circle cx="174.2" cy="151.3" r="4.7" class="c1"/><circle cx="172.8" cy="149.8" r="2.4" class="hl"/><ellipse cx="47" cy="157.1" rx="4.6" ry="1.8" class="sh"/><path d="M45.3 157.1V154.4" class="tr" stroke-width="1"/><circle cx="45.3" cy="152" r="4.4" class="c1"/><circle cx="43.9" cy="150.7" r="2.2" class="hl"/><ellipse cx="247.4" cy="158.2" rx="3.7" ry="1.5" class="sh"/><path d="M246 158.2V156" class="tr" stroke-width="1"/><circle cx="246" cy="154" r="3.5" class="c1"/><circle cx="244.9" cy="153" r="1.8" class="hl"/><ellipse cx="43.2" cy="158.9" rx="3.6" ry="1.4" class="sh"/><path d="M41.8 158.9V156.8" class="tr" stroke-width="1"/><circle cx="41.8" cy="155" r="3.4" class="c2"/><circle cx="40.8" cy="153.9" r="1.7" class="hl"/><ellipse cx="174.6" cy="159.1" rx="5.4" ry="2.2" class="sh"/><path d="M172.6 159.1V155.9" class="tr" stroke-width="1.1"/><circle cx="172.6" cy="153.1" r="5.2" class="c1"/><circle cx="171" cy="151.6" r="2.6" class="hl"/><ellipse cx="269.4" cy="159.8" rx="4.8" ry="1.9" class="sh"/><path d="M267.6 159.8V157" class="tr" stroke-width="1"/><circle cx="267.6" cy="154.5" r="4.5" class="c2"/><circle cx="266.2" cy="153.1" r="2.3" class="hl"/><ellipse cx="135.9" cy="159.9" rx="4.8" ry="1.9" class="sh"/><path d="M134.1 159.9V157" class="tr" stroke-width="1"/><circle cx="134.1" cy="154.5" r="4.6" class="c2"/><circle cx="132.7" cy="153.1" r="2.3" class="hl"/><ellipse cx="136.3" cy="160.5" rx="3.7" ry="1.5" class="sh"/><path d="M134.9 160.5V158.3" class="tr" stroke-width="1"/><circle cx="134.9" cy="156.3" r="3.6" class="c2"/><circle cx="133.9" cy="155.3" r="1.8" class="hl"/><ellipse cx="75.9" cy="160.6" rx="4.1" ry="1.6" class="sh"/><path d="M74.3 160.6V158.2" class="tr" stroke-width="1"/><circle cx="74.3" cy="156" r="3.9" class="c1"/><circle cx="73.1" cy="154.9" r="2" class="hl"/><ellipse cx="106.1" cy="160.8" rx="4.3" ry="1.7" class="sh"/><path d="M104.5 160.8V158.3" class="tr" stroke-width="1"/><circle cx="104.5" cy="156" r="4.1" class="c1"/><circle cx="103.3" cy="154.7" r="2.1" class="hl"/><ellipse cx="129.6" cy="161" rx="4.9" ry="1.9" class="sh"/><path d="M127.7 161V158.1" class="tr" stroke-width="1"/><circle cx="127.7" cy="155.6" r="4.6" class="c1"/><circle cx="126.3" cy="154.2" r="2.3" class="hl"/><ellipse cx="123.4" cy="161.2" rx="5.5" ry="2.2" class="sh"/><path d="M121.3 161.2V158" class="tr" stroke-width="1.2"/><circle cx="121.3" cy="155.1" r="5.3" class="c2"/><circle cx="119.7" cy="153.5" r="2.6" class="hl"/><ellipse cx="133.6" cy="162.5" rx="3.9" ry="1.6" class="sh"/><path d="M132.1 162.5V160.2" class="tr" stroke-width="1"/><circle cx="132.1" cy="158.1" r="3.7" class="c1"/><circle cx="131" cy="157" r="1.9" class="hl"/><ellipse cx="136.1" cy="163.9" rx="4.8" ry="1.9" class="sh"/><path d="M134.3 163.9V161" class="tr" stroke-width="1"/><circle cx="134.3" cy="158.5" r="4.6" class="c1"/><circle cx="133" cy="157.2" r="2.3" class="hl"/><ellipse cx="272.6" cy="164.6" rx="5.6" ry="2.2" class="sh"/><path d="M270.5 164.6V161.3" class="tr" stroke-width="1.2"/><circle cx="270.5" cy="158.4" r="5.3" class="c2"/><circle cx="268.9" cy="156.8" r="2.6" class="hl"/><ellipse cx="56.7" cy="165" rx="3.6" ry="1.4" class="sh"/><path d="M55.3 165V162.9" class="tr" stroke-width="1"/><circle cx="55.3" cy="161" r="3.4" class="c2"/><circle cx="54.3" cy="160" r="1.7" class="hl"/><ellipse cx="95.7" cy="165.6" rx="5.9" ry="2.3" class="sh"/><path d="M93.5 165.6V162.2" class="tr" stroke-width="1.2"/><circle cx="93.5" cy="159.1" r="5.6" class="c1"/><circle cx="91.8" cy="157.4" r="2.8" class="hl"/><ellipse cx="24.7" cy="166.6" rx="5" ry="2" class="sh"/><path d="M22.8 166.6V163.6" class="tr" stroke-width="1"/><circle cx="22.8" cy="161" r="4.8" class="c2"/><circle cx="21.4" cy="159.6" r="2.4" class="hl"/><ellipse cx="15.8" cy="167.9" rx="5.6" ry="2.2" class="sh"/><path d="M13.7 167.9V164.6" class="tr" stroke-width="1.2"/><circle cx="13.7" cy="161.7" r="5.3" class="c2"/><circle cx="12.1" cy="160.1" r="2.7" class="hl"/><ellipse cx="50.7" cy="168.7" rx="3.6" ry="1.5" class="sh"/><path d="M49.3 168.7V166.6" class="tr" stroke-width="1"/><circle cx="49.3" cy="164.7" r="3.5" class="c1"/><circle cx="48.2" cy="163.6" r="1.7" class="hl"/><ellipse cx="44.5" cy="169.7" rx="5.7" ry="2.3" class="sh"/><path d="M42.3 169.7V166.3" class="tr" stroke-width="1.2"/><circle cx="42.3" cy="163.4" r="5.4" class="c1"/><circle cx="40.7" cy="161.7" r="2.7" class="hl"/><ellipse cx="38.9" cy="169.7" rx="5.3" ry="2.1" class="sh"/><path d="M36.8 169.7V166.6" class="tr" stroke-width="1.1"/><circle cx="36.8" cy="163.8" r="5" class="c2"/><circle cx="35.3" cy="162.3" r="2.5" class="hl"/><ellipse cx="2.2" cy="170.9" rx="5" ry="2" class="sh"/><path d="M0.3 170.9V167.9" class="tr" stroke-width="1"/><circle cx="0.3" cy="165.3" r="4.8" class="c1"/><circle cx="-1.2" cy="163.9" r="2.4" class="hl"/><ellipse cx="51.6" cy="170.9" rx="4.7" ry="1.9" class="sh"/><path d="M49.9 170.9V168.2" class="tr" stroke-width="1"/><circle cx="49.9" cy="165.7" r="4.4" class="c2"/><circle cx="48.5" cy="164.4" r="2.2" class="hl"/><ellipse cx="48.5" cy="171.2" rx="3.6" ry="1.4" class="sh"/><path d="M47.1 171.2V169.1" class="tr" stroke-width="1"/><circle cx="47.1" cy="167.2" r="3.4" class="c2"/><circle cx="46.1" cy="166.2" r="1.7" class="hl"/><ellipse cx="51.9" cy="171.8" rx="3.5" ry="1.4" class="sh"/><path d="M50.5 171.8V169.8" class="tr" stroke-width="1"/><circle cx="50.5" cy="168" r="3.3" class="c1"/><circle cx="49.6" cy="167" r="1.6" class="hl"/><ellipse cx="146.2" cy="173" rx="5" ry="2" class="sh"/><path d="M144.3 173V170" class="tr" stroke-width="1.1"/><circle cx="144.3" cy="167.4" r="4.8" class="c1"/><circle cx="142.8" cy="165.9" r="2.4" class="hl"/><ellipse cx="142" cy="173.2" rx="4.7" ry="1.9" class="sh"/><path d="M140.3 173.2V170.5" class="tr" stroke-width="1"/><circle cx="140.3" cy="168" r="4.4" class="c1"/><circle cx="138.9" cy="166.7" r="2.2" class="hl"/><ellipse cx="162.3" cy="173.3" rx="3.6" ry="1.4" class="sh"/><path d="M160.9 173.3V171.2" class="tr" stroke-width="1"/><circle cx="160.9" cy="169.3" r="3.4" class="c1"/><circle cx="159.9" cy="168.3" r="1.7" class="hl"/><ellipse cx="148.8" cy="173.8" rx="3.9" ry="1.6" class="sh"/><path d="M147.3 173.8V171.5" class="tr" stroke-width="1"/><circle cx="147.3" cy="169.4" r="3.7" class="c2"/><circle cx="146.2" cy="168.3" r="1.8" class="hl"/><ellipse cx="47.9" cy="174.1" rx="4" ry="1.6" class="sh"/><path d="M46.4 174.1V171.8" class="tr" stroke-width="1"/><circle cx="46.4" cy="169.7" r="3.8" class="c2"/><circle cx="45.3" cy="168.5" r="1.9" class="hl"/><ellipse cx="108" cy="174.6" rx="5" ry="2" class="sh"/><path d="M106.1 174.6V171.6" class="tr" stroke-width="1.1"/><circle cx="106.1" cy="169" r="4.8" class="c1"/><circle cx="104.6" cy="167.5" r="2.4" class="hl"/><ellipse cx="29.3" cy="176.4" rx="4.2" ry="1.7" class="sh"/><path d="M27.7 176.4V173.9" class="tr" stroke-width="1"/><circle cx="27.7" cy="171.6" r="4" class="c1"/><circle cx="26.5" cy="170.4" r="2" class="hl"/><ellipse cx="34.1" cy="177.6" rx="3.9" ry="1.6" class="sh"/><path d="M32.6 177.6V175.3" class="tr" stroke-width="1"/><circle cx="32.6" cy="173.2" r="3.8" class="c1"/><circle cx="31.5" cy="172.1" r="1.9" class="hl"/><ellipse cx="136.5" cy="178" rx="5.1" ry="2.1" class="sh"/><path d="M134.5 178V174.9" class="tr" stroke-width="1.1"/><circle cx="134.5" cy="172.2" r="4.9" class="c1"/><circle cx="133" cy="170.8" r="2.4" class="hl"/><ellipse cx="87.3" cy="178.7" rx="6.3" ry="2.5" class="sh"/><path d="M84.8 178.7V174.9" class="tr" stroke-width="1.3"/><circle cx="84.8" cy="171.6" r="6" class="c2"/><circle cx="83" cy="169.8" r="3" class="hl"/><ellipse cx="8.6" cy="178.8" rx="4.8" ry="1.9" class="sh"/><path d="M6.7 178.8V175.9" class="tr" stroke-width="1"/><circle cx="6.7" cy="173.4" r="4.6" class="c1"/><circle cx="5.4" cy="172.1" r="2.3" class="hl"/><ellipse cx="197.8" cy="179.8" rx="6.7" ry="2.7" class="sh"/><path d="M195.3 179.8V175.9" class="tr" stroke-width="1.4"/><circle cx="195.3" cy="172.4" r="6.4" class="c1"/><circle cx="193.4" cy="170.5" r="3.2" class="hl"/><ellipse cx="4.1" cy="180.3" rx="5.4" ry="2.2" class="sh"/><path d="M2 180.3V177.1" class="tr" stroke-width="1.1"/><circle cx="2" cy="174.2" r="5.2" class="c1"/><circle cx="0.5" cy="172.7" r="2.6" class="hl"/><ellipse cx="208.4" cy="181.8" rx="3.7" ry="1.5" class="sh"/><path d="M206.9 181.8V179.6" class="tr" stroke-width="1"/><circle cx="206.9" cy="177.7" r="3.6" class="c1"/><circle cx="205.9" cy="176.6" r="1.8" class="hl"/><ellipse cx="50.4" cy="182.3" rx="6.2" ry="2.5" class="sh"/><path d="M48.1 182.3V178.7" class="tr" stroke-width="1.3"/><circle cx="48.1" cy="175.5" r="5.9" class="c2"/><circle cx="46.3" cy="173.7" r="2.9" class="hl"/><ellipse cx="80.5" cy="182.5" rx="4.1" ry="1.6" class="sh"/><path d="M79 182.5V180.1" class="tr" stroke-width="1"/><circle cx="79" cy="178" r="3.9" class="c1"/><circle cx="77.8" cy="176.8" r="1.9" class="hl"/><ellipse cx="83.2" cy="182.6" rx="4.3" ry="1.7" class="sh"/><path d="M81.6 182.6V180.1" class="tr" stroke-width="1"/><circle cx="81.6" cy="177.8" r="4.1" class="c2"/><circle cx="80.3" cy="176.6" r="2" class="hl"/><ellipse cx="199.6" cy="183.3" rx="6.5" ry="2.6" class="sh"/><path d="M197.1 183.3V179.5" class="tr" stroke-width="1.4"/><circle cx="197.1" cy="176.1" r="6.2" class="c2"/><circle cx="195.2" cy="174.2" r="3.1" class="hl"/><ellipse cx="207.4" cy="183.4" rx="3.8" ry="1.5" class="sh"/><path d="M205.9 183.4V181.1" class="tr" stroke-width="1"/><circle cx="205.9" cy="179.1" r="3.6" class="c2"/><circle cx="204.9" cy="178" r="1.8" class="hl"/><ellipse cx="236.9" cy="184.7" rx="7" ry="2.8" class="sh"/><path d="M234.3 184.7V180.6" class="tr" stroke-width="1.5"/><circle cx="234.3" cy="176.9" r="6.6" class="c1"/><circle cx="232.3" cy="174.9" r="3.3" class="hl"/><ellipse cx="86.6" cy="184.9" rx="4.3" ry="1.7" class="sh"/><path d="M85 184.9V182.3" class="tr" stroke-width="1"/><circle cx="85" cy="180.1" r="4.1" class="c1"/><circle cx="83.8" cy="178.9" r="2" class="hl"/><ellipse cx="204.7" cy="185.1" rx="4.3" ry="1.7" class="sh"/><path d="M203 185.1V182.5" class="tr" stroke-width="1"/><circle cx="203" cy="180.3" r="4.1" class="c2"/><circle cx="201.8" cy="179.1" r="2" class="hl"/><ellipse cx="68.7" cy="185.6" rx="5.3" ry="2.1" class="sh"/><path d="M66.7 185.6V182.5" class="tr" stroke-width="1.1"/><circle cx="66.7" cy="179.7" r="5.1" class="c2"/><circle cx="65.2" cy="178.2" r="2.5" class="hl"/><ellipse cx="234" cy="186.5" rx="5.5" ry="2.2" class="sh"/><path d="M231.9 186.5V183.2" class="tr" stroke-width="1.1"/><circle cx="231.9" cy="180.4" r="5.2" class="c2"/><circle cx="230.3" cy="178.8" r="2.6" class="hl"/><ellipse cx="76.5" cy="186.9" rx="5.2" ry="2.1" class="sh"/><path d="M74.5 186.9V183.8" class="tr" stroke-width="1.1"/><circle cx="74.5" cy="181" r="5" class="c1"/><circle cx="73" cy="179.5" r="2.5" class="hl"/><ellipse cx="269.8" cy="187.1" rx="6.7" ry="2.7" class="sh"/><path d="M267.2 187.1V183.1" class="tr" stroke-width="1.4"/><circle cx="267.2" cy="179.6" r="6.4" class="c2"/><circle cx="265.3" cy="177.7" r="3.2" class="hl"/><ellipse cx="201.5" cy="187.2" rx="7" ry="2.8" class="sh"/><path d="M198.8 187.2V183.1" class="tr" stroke-width="1.5"/><circle cx="198.8" cy="179.4" r="6.6" class="c2"/><circle cx="196.8" cy="177.4" r="3.3" class="hl"/><ellipse cx="66.7" cy="188" rx="4.3" ry="1.7" class="sh"/><path d="M65.1 188V185.5" class="tr" stroke-width="1"/><circle cx="65.1" cy="183.2" r="4.1" class="c1"/><circle cx="63.8" cy="182" r="2.1" class="hl"/><ellipse cx="204.8" cy="188" rx="5.7" ry="2.3" class="sh"/><path d="M202.7 188V184.6" class="tr" stroke-width="1.2"/><circle cx="202.7" cy="181.7" r="5.4" class="c1"/><circle cx="201" cy="180" r="2.7" class="hl"/><ellipse cx="83.2" cy="188.3" rx="5.1" ry="2" class="sh"/><path d="M81.2 188.3V185.2" class="tr" stroke-width="1.1"/><circle cx="81.2" cy="182.5" r="4.9" class="c2"/><circle cx="79.8" cy="181.1" r="2.4" class="hl"/><ellipse cx="81.5" cy="188.3" rx="5.8" ry="2.3" class="sh"/><path d="M79.3 188.3V184.9" class="tr" stroke-width="1.2"/><circle cx="79.3" cy="181.9" r="5.5" class="c2"/><circle cx="77.7" cy="180.2" r="2.7" class="hl"/><ellipse cx="73.9" cy="188.3" rx="4.7" ry="1.9" class="sh"/><path d="M72.1 188.3V185.5" class="tr" stroke-width="1"/><circle cx="72.1" cy="183.1" r="4.5" class="c2"/><circle cx="70.8" cy="181.7" r="2.3" class="hl"/><ellipse cx="89.4" cy="188.4" rx="6.4" ry="2.6" class="sh"/><path d="M87 188.4V184.6" class="tr" stroke-width="1.3"/><circle cx="87" cy="181.2" r="6.1" class="c2"/><circle cx="85.2" cy="179.4" r="3" class="hl"/><ellipse cx="80" cy="188.5" rx="5.9" ry="2.4" class="sh"/><path d="M77.8 188.5V185" class="tr" stroke-width="1.2"/><circle cx="77.8" cy="181.9" r="5.7" class="c2"/><circle cx="76.1" cy="180.2" r="2.8" class="hl"/><ellipse cx="239.8" cy="188.5" rx="6.1" ry="2.5" class="sh"/><path d="M237.4 188.5V184.9" class="tr" stroke-width="1.3"/><circle cx="237.4" cy="181.7" r="5.9" class="c1"/><circle cx="235.7" cy="179.9" r="2.9" class="hl"/><ellipse cx="77.9" cy="188.9" rx="4.6" ry="1.8" class="sh"/><path d="M76.2 188.9V186.2" class="tr" stroke-width="1"/><circle cx="76.2" cy="183.8" r="4.3" class="c1"/><circle cx="74.9" cy="182.5" r="2.2" class="hl"/><ellipse cx="237.5" cy="190" rx="5.7" ry="2.3" class="sh"/><path d="M235.3 190V186.6" class="tr" stroke-width="1.2"/><circle cx="235.3" cy="183.7" r="5.4" class="c2"/><circle cx="233.7" cy="182.1" r="2.7" class="hl"/><ellipse cx="198.1" cy="190.8" rx="5" ry="2" class="sh"/><path d="M196.2 190.8V187.8" class="tr" stroke-width="1.1"/><circle cx="196.2" cy="185.2" r="4.8" class="c2"/><circle cx="194.7" cy="183.7" r="2.4" class="hl"/><ellipse cx="81.5" cy="190.9" rx="5.2" ry="2.1" class="sh"/><path d="M79.6 190.9V187.9" class="tr" stroke-width="1.1"/><circle cx="79.6" cy="185.2" r="4.9" class="c1"/><circle cx="78.1" cy="183.7" r="2.5" class="hl"/><ellipse cx="77.8" cy="191" rx="4.4" ry="1.7" class="sh"/><path d="M76.2 191V188.4" class="tr" stroke-width="1"/><circle cx="76.2" cy="186.1" r="4.2" class="c1"/><circle cx="74.9" cy="184.9" r="2.1" class="hl"/><ellipse cx="237.7" cy="191.1" rx="7.1" ry="2.8" class="sh"/><path d="M235 191.1V186.9" class="tr" stroke-width="1.5"/><circle cx="235" cy="183.2" r="6.8" class="c1"/><circle cx="233" cy="181.2" r="3.4" class="hl"/><ellipse cx="266.1" cy="191.6" rx="5.6" ry="2.3" class="sh"/><path d="M263.9 191.6V188.3" class="tr" stroke-width="1.2"/><circle cx="263.9" cy="185.3" r="5.4" class="c2"/><circle cx="262.3" cy="183.7" r="2.7" class="hl"/><ellipse cx="238" cy="191.7" rx="5.8" ry="2.3" class="sh"/><path d="M235.8 191.7V188.3" class="tr" stroke-width="1.2"/><circle cx="235.8" cy="185.3" r="5.5" class="c2"/><circle cx="234.1" cy="183.6" r="2.7" class="hl"/><ellipse cx="137.9" cy="191.7" rx="6.7" ry="2.7" class="sh"/><path d="M135.3 191.7V187.8" class="tr" stroke-width="1.4"/><circle cx="135.3" cy="184.3" r="6.4" class="c1"/><circle cx="133.4" cy="182.4" r="3.2" class="hl"/><ellipse cx="77.7" cy="191.8" rx="6.9" ry="2.8" class="sh"/><path d="M75.1 191.8V187.7" class="tr" stroke-width="1.4"/><circle cx="75.1" cy="184.1" r="6.6" class="c2"/><circle cx="73.1" cy="182.1" r="3.3" class="hl"/><ellipse cx="200.1" cy="192.2" rx="7" ry="2.8" class="sh"/><path d="M197.5 192.2V188.1" class="tr" stroke-width="1.5"/><circle cx="197.5" cy="184.4" r="6.7" class="c1"/><circle cx="195.4" cy="182.4" r="3.3" class="hl"/><ellipse cx="130.9" cy="193.1" rx="7.2" ry="2.9" class="sh"/><path d="M128.1 193.1V188.8" class="tr" stroke-width="1.5"/><circle cx="128.1" cy="185.1" r="6.8" class="c2"/><circle cx="126.1" cy="183" r="3.4" class="hl"/><ellipse cx="74.5" cy="194.1" rx="5.1" ry="2" class="sh"/><path d="M72.5 194.1V191.1" class="tr" stroke-width="1.1"/><circle cx="72.5" cy="188.4" r="4.8" class="c2"/><circle cx="71.1" cy="187" r="2.4" class="hl"/><ellipse cx="279.5" cy="194.1" rx="6" ry="2.4" class="sh"/><path d="M277.2 194.1V190.6" class="tr" stroke-width="1.3"/><circle cx="277.2" cy="187.5" r="5.7" class="c1"/><circle cx="275.5" cy="185.8" r="2.8" class="hl"/><ellipse cx="232.7" cy="194.5" rx="6.9" ry="2.8" class="sh"/><path d="M230 194.5V190.4" class="tr" stroke-width="1.5"/><circle cx="230" cy="186.8" r="6.6" class="c2"/><circle cx="228" cy="184.8" r="3.3" class="hl"/><ellipse cx="243.8" cy="194.5" rx="4.7" ry="1.9" class="sh"/><path d="M242.1 194.5V191.7" class="tr" stroke-width="1"/><circle cx="242.1" cy="189.3" r="4.5" class="c1"/><circle cx="240.7" cy="187.9" r="2.2" class="hl"/><ellipse cx="137.1" cy="194.9" rx="6.6" ry="2.7" class="sh"/><path d="M134.6 194.9V190.9" class="tr" stroke-width="1.4"/><circle cx="134.6" cy="187.5" r="6.3" class="c1"/><circle cx="132.7" cy="185.6" r="3.2" class="hl"/><ellipse cx="58.4" cy="195.1" rx="5.9" ry="2.4" class="sh"/><path d="M56.1 195.1V191.6" class="tr" stroke-width="1.2"/><circle cx="56.1" cy="188.6" r="5.6" class="c1"/><circle cx="54.5" cy="186.9" r="2.8" class="hl"/><ellipse cx="226" cy="195.2" rx="7.4" ry="3" class="sh"/><path d="M223.1 195.2V190.8" class="tr" stroke-width="1.6"/><circle cx="223.1" cy="187" r="7.1" class="c1"/><circle cx="221" cy="184.8" r="3.5" class="hl"/><ellipse cx="58.7" cy="195.9" rx="7" ry="2.8" class="sh"/><path d="M56 195.9V191.8" class="tr" stroke-width="1.5"/><circle cx="56" cy="188.1" r="6.7" class="c1"/><circle cx="54" cy="186.1" r="3.4" class="hl"/><ellipse cx="224.1" cy="196" rx="4.3" ry="1.7" class="sh"/><path d="M222.4 196V193.4" class="tr" stroke-width="1"/><circle cx="222.4" cy="191.1" r="4.1" class="c2"/><circle cx="221.2" cy="189.9" r="2.1" class="hl"/><ellipse cx="244.7" cy="197.9" rx="4.8" ry="1.9" class="sh"/><path d="M242.9 197.9V195.1" class="tr" stroke-width="1"/><circle cx="242.9" cy="192.6" r="4.6" class="c1"/><circle cx="241.5" cy="191.2" r="2.3" class="hl"/><ellipse cx="78" cy="198.2" rx="6.3" ry="2.5" class="sh"/><path d="M75.6 198.2V194.5" class="tr" stroke-width="1.3"/><circle cx="75.6" cy="191.2" r="6" class="c1"/><circle cx="73.8" cy="189.4" r="3" class="hl"/><ellipse cx="241.7" cy="198.9" rx="5.5" ry="2.2" class="sh"/><path d="M239.6 198.9V195.6" class="tr" stroke-width="1.2"/><circle cx="239.6" cy="192.8" r="5.2" class="c1"/><circle cx="238.1" cy="191.2" r="2.6" class="hl"/><ellipse cx="264.6" cy="199" rx="4.5" ry="1.8" class="sh"/><path d="M262.9 199V196.3" class="tr" stroke-width="1"/><circle cx="262.9" cy="194" r="4.3" class="c2"/><circle cx="261.6" cy="192.7" r="2.1" class="hl"/><ellipse cx="77.9" cy="199.4" rx="6.3" ry="2.5" class="sh"/><path d="M75.5 199.4V195.6" class="tr" stroke-width="1.3"/><circle cx="75.5" cy="192.4" r="6" class="c1"/><circle cx="73.7" cy="190.6" r="3" class="hl"/><ellipse cx="220.5" cy="199.5" rx="5.1" ry="2" class="sh"/><path d="M218.6 199.5V196.5" class="tr" stroke-width="1.1"/><circle cx="218.6" cy="193.9" r="4.8" class="c1"/><circle cx="217.2" cy="192.4" r="2.4" class="hl"/><ellipse cx="233.9" cy="201.1" rx="7.7" ry="3.1" class="sh"/><path d="M230.9 201.1V196.5" class="tr" stroke-width="1.6"/><circle cx="230.9" cy="192.5" r="7.4" class="c1"/><circle cx="228.7" cy="190.3" r="3.7" class="hl"/><ellipse cx="247.6" cy="201.2" rx="6.9" ry="2.8" class="sh"/><path d="M245 201.2V197.2" class="tr" stroke-width="1.4"/><circle cx="245" cy="193.5" r="6.6" class="c1"/><circle cx="243" cy="191.6" r="3.3" class="hl"/><ellipse cx="131" cy="201.2" rx="5.2" ry="2.1" class="sh"/><path d="M129 201.2V198.2" class="tr" stroke-width="1.1"/><circle cx="129" cy="195.4" r="5" class="c1"/><circle cx="127.5" cy="193.9" r="2.5" class="hl"/><ellipse cx="123.7" cy="202.9" rx="7.6" ry="3" class="sh"/><path d="M120.8 202.9V198.4" class="tr" stroke-width="1.6"/><circle cx="120.8" cy="194.5" r="7.2" class="c2"/><circle cx="118.7" cy="192.3" r="3.6" class="hl"/><ellipse cx="136.4" cy="203.4" rx="7.7" ry="3.1" class="sh"/><path d="M133.4 203.4V198.9" class="tr" stroke-width="1.6"/><circle cx="133.4" cy="194.8" r="7.3" class="c1"/><circle cx="131.2" cy="192.6" r="3.7" class="hl"/><ellipse cx="144.1" cy="204.6" rx="7.4" ry="2.9" class="sh"/><path d="M141.3 204.6V200.2" class="tr" stroke-width="1.5"/><circle cx="141.3" cy="196.4" r="7" class="c2"/><circle cx="139.2" cy="194.3" r="3.5" class="hl"/><ellipse cx="59.6" cy="238.1" rx="7.2" ry="2.9" class="sh"/><path d="M56.8 238.1V233.8" class="tr" stroke-width="1.5"/><circle cx="56.8" cy="230" r="6.9" class="c2"/><circle cx="54.7" cy="228" r="3.4" class="hl"/><ellipse cx="90.1" cy="238.6" rx="9" ry="3.6" class="sh"/><path d="M86.6 238.6V233.2" class="tr" stroke-width="1.9"/><circle cx="86.6" cy="228.5" r="8.6" class="c1"/><circle cx="84" cy="225.9" r="4.3" class="hl"/><ellipse cx="96.9" cy="239.3" rx="6.1" ry="2.4" class="sh"/><path d="M94.6 239.3V235.7" class="tr" stroke-width="1.3"/><circle cx="94.6" cy="232.6" r="5.8" class="c2"/><circle cx="92.9" cy="230.8" r="2.9" class="hl"/><ellipse cx="96.3" cy="241.7" rx="8.9" ry="3.5" class="sh"/><path d="M92.9 241.7V236.5" class="tr" stroke-width="1.9"/><circle cx="92.9" cy="231.8" r="8.4" class="c2"/><circle cx="90.4" cy="229.3" r="4.2" class="hl"/><ellipse cx="92" cy="242.2" rx="7.3" ry="2.9" class="sh"/><path d="M89.2 242.2V237.9" class="tr" stroke-width="1.5"/><circle cx="89.2" cy="234.1" r="7" class="c1"/><circle cx="87.1" cy="232" r="3.5" class="hl"/><ellipse cx="53.7" cy="252.2" rx="8.5" ry="3.4" class="sh"/><path d="M50.4 252.2V247.2" class="tr" stroke-width="1.8"/><circle cx="50.4" cy="242.7" r="8.1" class="c2"/><circle cx="48" cy="240.3" r="4.1" class="hl"/><ellipse cx="81.5" cy="254.5" rx="8" ry="3.2" class="sh"/><path d="M78.4 254.5V249.8" class="tr" stroke-width="1.7"/><circle cx="78.4" cy="245.5" r="7.7" class="c1"/><circle cx="76.1" cy="243.2" r="3.8" class="hl"/><ellipse cx="59.5" cy="254.8" rx="6.4" ry="2.5" class="sh"/><path d="M57.1 254.8V251.1" class="tr" stroke-width="1.3"/><circle cx="57.1" cy="247.7" r="6.1" class="c1"/><circle cx="55.3" cy="245.9" r="3" class="hl"/><ellipse cx="46" cy="261.8" rx="6.3" ry="2.5" class="sh"/><path d="M43.6 261.8V258.1" class="tr" stroke-width="1.3"/><circle cx="43.6" cy="254.8" r="6" class="c2"/><circle cx="41.9" cy="253" r="3" class="hl"/><ellipse cx="86.9" cy="261.8" rx="7.9" ry="3.1" class="sh"/><path d="M83.9 261.8V257.1" class="tr" stroke-width="1.6"/><circle cx="83.9" cy="253" r="7.5" class="c1"/><circle cx="81.6" cy="250.8" r="3.7" class="hl"/><ellipse cx="78" cy="264" rx="11.1" ry="4.4" class="sh"/><path d="M73.8 264V257.4" class="tr" stroke-width="2.3"/><circle cx="73.8" cy="251.6" r="10.5" class="c2"/><circle cx="70.6" cy="248.5" r="5.3" class="hl"/><ellipse cx="77.2" cy="264" rx="11.4" ry="4.5" class="sh"/><path d="M72.9 264V257.3" class="tr" stroke-width="2.4"/><circle cx="72.9" cy="251.4" r="10.8" class="c2"/><circle cx="69.6" cy="248.1" r="5.4" class="hl"/></svg>